<svg width="14" height="14" viewBox="0 0 14 14" fill="none" xmlns="http://www.w3.org/2000/svg">
    <path d="M7.22719 0.424561C8.0992 0.424561 8.93549 0.770964 9.55209 1.38757C10.1687 2.00417 10.5151 2.84046 10.5151 3.71247C10.5151 4.58448 10.1687 5.42077 9.55209 6.03737C8.93549 6.65398 8.0992 7.00038 7.22719 7.00038C6.35518 7.00038 5.51889 6.65398 4.90228 6.03737C4.28568 5.42077 3.93928 4.58448 3.93928 3.71247C3.93928 2.84046 4.28568 2.00417 4.90228 1.38757C5.51889 0.770964 6.35518 0.424561 7.22719 0.424561ZM7.22719 8.64434C10.8603 8.64434 13.803 10.1157 13.803 11.9322V13.5762H0.651367V11.9322C0.651367 10.1157 3.59405 8.64434 7.22719 8.64434Z" fill="white"/>
    </svg>    